<svg width="122" height="54" viewBox="0 0 122 54" fill="none" xmlns="http://www.w3.org/2000/svg">
<path d="M69.5 19.96C70.98 19.96 72.2733 20.2533 73.38 20.84C74.4867 21.4267 75.34 22.2533 75.94 23.32C76.5533 24.3733 76.86 25.5933 76.86 26.98C76.86 28.3533 76.5533 29.5733 75.94 30.64C75.34 31.7067 74.48 32.5333 73.36 33.12C72.2533 33.7067 70.9667 34 69.5 34H64.24V19.96H69.5ZM69.28 31.04C70.5733 31.04 71.58 30.6867 72.3 29.98C73.02 29.2733 73.38 28.2733 73.38 26.98C73.38 25.6867 73.02 24.68 72.3 23.96C71.58 23.24 70.5733 22.88 69.28 22.88H67.66V31.04H69.28ZM85.4113 34.14C84.0913 34.14 82.8779 33.8333 81.7713 33.22C80.6779 32.6067 79.8046 31.7533 79.1513 30.66C78.5112 29.5533 78.1912 28.3133 78.1912 26.94C78.1912 25.5667 78.5112 24.3333 79.1513 23.24C79.8046 22.1467 80.6779 21.2933 81.7713 20.68C82.8779 20.0667 84.0913 19.76 85.4113 19.76C86.7313 19.76 87.9379 20.0667 89.0313 20.68C90.1379 21.2933 91.0046 22.1467 91.6313 23.24C92.2713 24.3333 92.5913 25.5667 92.5913 26.94C92.5913 28.3133 92.2713 29.5533 91.6313 30.66C90.9913 31.7533 90.1246 32.6067 89.0313 33.22C87.9379 33.8333 86.7313 34.14 85.4113 34.14ZM85.4113 31.02C86.5313 31.02 87.4246 30.6467 88.0912 29.9C88.7713 29.1533 89.1113 28.1667 89.1113 26.94C89.1113 25.7 88.7713 24.7133 88.0912 23.98C87.4246 23.2333 86.5313 22.86 85.4113 22.86C84.2779 22.86 83.3713 23.2267 82.6913 23.96C82.0246 24.6933 81.6913 25.6867 81.6913 26.94C81.6913 28.18 82.0246 29.1733 82.6913 29.92C83.3713 30.6533 84.2779 31.02 85.4113 31.02ZM104.594 19.96V22.7H100.874V34H97.4539V22.7H93.7339V19.96H104.594ZM111.39 34.14C110.364 34.14 109.444 33.9733 108.63 33.64C107.817 33.3067 107.164 32.8133 106.67 32.16C106.19 31.5067 105.937 30.72 105.91 29.8H109.55C109.604 30.32 109.784 30.72 110.09 31C110.397 31.2667 110.797 31.4 111.29 31.4C111.797 31.4 112.197 31.2867 112.49 31.06C112.784 30.82 112.93 30.4933 112.93 30.08C112.93 29.7333 112.81 29.4467 112.57 29.22C112.344 28.9933 112.057 28.8067 111.71 28.66C111.377 28.5133 110.897 28.3467 110.27 28.16C109.364 27.88 108.624 27.6 108.05 27.32C107.477 27.04 106.984 26.6267 106.57 26.08C106.157 25.5333 105.95 24.82 105.95 23.94C105.95 22.6333 106.424 21.6133 107.37 20.88C108.317 20.1333 109.55 19.76 111.07 19.76C112.617 19.76 113.864 20.1333 114.81 20.88C115.757 21.6133 116.264 22.64 116.33 23.96H112.63C112.604 23.5067 112.437 23.1533 112.13 22.9C111.824 22.6333 111.43 22.5 110.95 22.5C110.537 22.5 110.204 22.6133 109.95 22.84C109.697 23.0533 109.57 23.3667 109.57 23.78C109.57 24.2333 109.784 24.5867 110.21 24.84C110.637 25.0933 111.304 25.3667 112.21 25.66C113.117 25.9667 113.85 26.26 114.41 26.54C114.984 26.82 115.477 27.2267 115.89 27.76C116.304 28.2933 116.51 28.98 116.51 29.82C116.51 30.62 116.304 31.3467 115.89 32C115.49 32.6533 114.904 33.1733 114.13 33.56C113.357 33.9467 112.444 34.14 111.39 34.14Z" fill="#422F46"/>
<path d="M37.0285 9.25781H47.057L51.6856 17.7435L47.057 26.2292H37.0285L32.3999 17.7435L37.0285 9.25781Z" fill="#422F46"/>
<path d="M20.8285 0H30.8571L35.4857 8.48571L30.8571 16.9714H20.8285L16.2 8.48571L20.8285 0Z" fill="#422F46"/>
<path d="M4.62857 9.25781H14.6571L19.2857 17.7435L14.6571 26.2292H4.62857L0 17.7435L4.62857 9.25781Z" fill="#422F46"/>
<path d="M4.62857 27.7715H14.6571L19.2857 36.2572L14.6571 44.7429H4.62857L0 36.2572L4.62857 27.7715Z" fill="#422F46"/>
<path d="M20.8285 18.5137H30.8571L35.4857 26.9994L30.8571 35.4851H20.8285L16.2 26.9994L20.8285 18.5137Z" fill="#422F46"/>
<path d="M20.8285 37.0293H30.8571L35.4857 45.515L30.8571 54.0007H20.8285L16.2 45.515L20.8285 37.0293Z" fill="#422F46"/>
<path d="M37.0285 27.7715H47.057L51.6856 36.2572L47.057 44.7429H37.0285L32.3999 36.2572L37.0285 27.7715Z" fill="#422F46"/>
</svg>
