<svg width="88" height="35" viewBox="0 0 88 35" fill="none" xmlns="http://www.w3.org/2000/svg">
<path d="M45.2 11.85C46.384 11.85 47.4187 12.0847 48.304 12.554C49.1893 13.0234 49.872 13.6847 50.352 14.538C50.8427 15.3807 51.088 16.3567 51.088 17.466C51.088 18.5647 50.8427 19.5407 50.352 20.394C49.872 21.2474 49.184 21.9087 48.288 22.378C47.4027 22.8474 46.3733 23.082 45.2 23.082H40.992V11.85H45.2ZM45.024 20.714C46.0587 20.714 46.864 20.4314 47.44 19.866C48.016 19.3007 48.304 18.5007 48.304 17.466C48.304 16.4314 48.016 15.626 47.44 15.05C46.864 14.474 46.0587 14.186 45.024 14.186H43.728V20.714H45.024ZM57.929 23.194C56.873 23.194 55.9023 22.9487 55.017 22.458C54.1423 21.9674 53.4437 21.2847 52.921 20.41C52.409 19.5247 52.153 18.5327 52.153 17.434C52.153 16.3354 52.409 15.3487 52.921 14.474C53.4437 13.5994 54.1423 12.9167 55.017 12.426C55.9023 11.9354 56.873 11.69 57.929 11.69C58.985 11.69 59.9503 11.9354 60.825 12.426C61.7103 12.9167 62.4037 13.5994 62.905 14.474C63.417 15.3487 63.673 16.3354 63.673 17.434C63.673 18.5327 63.417 19.5247 62.905 20.41C62.393 21.2847 61.6997 21.9674 60.825 22.458C59.9503 22.9487 58.985 23.194 57.929 23.194ZM57.929 20.698C58.825 20.698 59.5397 20.3994 60.073 19.802C60.617 19.2047 60.889 18.4154 60.889 17.434C60.889 16.442 60.617 15.6527 60.073 15.066C59.5397 14.4687 58.825 14.17 57.929 14.17C57.0223 14.17 56.297 14.4634 55.753 15.05C55.2197 15.6367 54.953 16.4314 54.953 17.434C54.953 18.426 55.2197 19.2207 55.753 19.818C56.297 20.4047 57.0223 20.698 57.929 20.698ZM73.2751 11.85V14.042H70.2991V23.082H67.5631V14.042H64.5871V11.85H73.2751ZM78.7123 23.194C77.8909 23.194 77.1549 23.0607 76.5043 22.794C75.8536 22.5274 75.3309 22.1327 74.9363 21.61C74.5523 21.0874 74.3496 20.458 74.3283 19.722H77.2403C77.2829 20.138 77.4269 20.458 77.6723 20.682C77.9176 20.8954 78.2376 21.002 78.6323 21.002C79.0376 21.002 79.3576 20.9114 79.5923 20.73C79.8269 20.538 79.9443 20.2767 79.9443 19.946C79.9443 19.6687 79.8483 19.4394 79.6563 19.258C79.4749 19.0767 79.2456 18.9274 78.9683 18.81C78.7016 18.6927 78.3176 18.5594 77.8163 18.41C77.0909 18.186 76.4989 17.962 76.0403 17.738C75.5816 17.514 75.1869 17.1834 74.8563 16.746C74.5256 16.3087 74.3603 15.738 74.3603 15.034C74.3603 13.9887 74.7389 13.1727 75.4963 12.586C76.2536 11.9887 77.2403 11.69 78.4563 11.69C79.6936 11.69 80.6909 11.9887 81.4483 12.586C82.2056 13.1727 82.6109 13.994 82.6643 15.05H79.7043C79.6829 14.6874 79.5496 14.4047 79.3043 14.202C79.0589 13.9887 78.7443 13.882 78.3602 13.882C78.0296 13.882 77.7629 13.9727 77.5603 14.154C77.3576 14.3247 77.2563 14.5754 77.2563 14.906C77.2563 15.2687 77.4269 15.5514 77.7682 15.754C78.1096 15.9567 78.6429 16.1754 79.3683 16.41C80.0936 16.6554 80.6803 16.89 81.1283 17.114C81.5869 17.338 81.9816 17.6634 82.3123 18.09C82.6429 18.5167 82.8083 19.066 82.8083 19.738C82.8083 20.378 82.6429 20.9594 82.3123 21.482C81.9923 22.0047 81.5229 22.4207 80.9043 22.73C80.2856 23.0394 79.5549 23.194 78.7123 23.194Z" fill="white"/>
<path d="M23.3705 5.84375H29.7L32.6213 11.1995L29.7 16.5552H23.3705L20.4492 11.1995L23.3705 5.84375Z" fill="white"/>
<path d="M13.1459 0H19.4754L22.3967 5.35574L19.4754 10.7115H13.1459L10.2246 5.35574L13.1459 0Z" fill="white"/>
<path d="M2.92131 5.84375H9.25082L12.1721 11.1995L9.25082 16.5552H2.92131L0 11.1995L2.92131 5.84375Z" fill="white"/>
<path d="M2.92131 17.5273H9.25082L12.1721 22.8831L9.25082 28.2388H2.92131L0 22.8831L2.92131 17.5273Z" fill="white"/>
<path d="M13.1459 11.6855H19.4754L22.3967 17.0413L19.4754 22.397H13.1459L10.2246 17.0413L13.1459 11.6855Z" fill="white"/>
<path d="M13.1459 23.3711H19.4754L22.3967 28.7268L19.4754 34.0826H13.1459L10.2246 28.7268L13.1459 23.3711Z" fill="white"/>
<path d="M23.3705 17.5273H29.7L32.6213 22.8831L29.7 28.2388H23.3705L20.4492 22.8831L23.3705 17.5273Z" fill="white"/>
</svg>
